Coordinates
version=1
nRows=11
nColumns=63
inDegrees=yes

Units are S.I. units (second, meters, Newtons, ...)
If the header above contains a line with 'inDegrees', this indicates whether rotational values are in degrees (yes) or radians (no).

endheader
time	pelvis_tilt	pelvis_list	pelvis_rotation	pelvis_tx	pelvis_ty	pelvis_tz	hip_flexion_r	hip_adduction_r	hip_rotation_r	knee_angle_r	knee_angle_r_beta	ankle_angle_r	subtalar_angle_r	mtp_angle_r	hip_flexion_l	hip_adduction_l	hip_rotation_l	knee_angle_l	knee_angle_l_beta	ankle_angle_l	subtalar_angle_l	mtp_angle_l	L5_S1_Flex_Ext	L5_S1_Lat_Bending	L5_S1_axial_rotation	L4_L5_Flex_Ext	L4_L5_Lat_Bending	L4_L5_axial_rotation	L3_L4_Flex_Ext	L3_L4_Lat_Bending	L3_L4_axial_rotation	L2_L3_Flex_Ext	L2_L3_Lat_Bending	L2_L3_axial_rotation	L1_L2_Flex_Ext	L1_L2_Lat_Bending	L1_L2_axial_rotation	L1_T12_Flex_Ext	L1_T12_Lat_Bending	L1_T12_axial_rotation	Abs_r3	Abs_r2	Abs_r1	Abs_t1	Abs_t2	neck_flexion	neck_bending	neck_rotation	arm_flex_r	arm_add_r	arm_rot_r	elbow_flex_r	pro_sup_r	wrist_flex_r	wrist_dev_r	arm_flex_l	arm_add_l	arm_rot_l	elbow_flex_l	pro_sup_l	wrist_flex_l	wrist_dev_l
      2.52000000	     -2.41070034	     -9.06217970	     94.27529782	      0.21954506	      0.75482067	      0.60900436	      1.11501914	     -2.16986295	      3.73759579	      1.55105390	      0.02707100	     24.96604946	     -3.56494587	      0.00000000	      4.80803373	      2.43602942	      1.09964027	      5.93119914	      0.10351895	     26.35629962	     -1.31944927	      0.00000000	     -0.21398869	      0.22841176	     -0.58684931	     -0.39739839	      0.30378764	     -0.62352739	     -0.35156201	      0.55536035	     -0.62352739	     -0.24456767	      0.55536035	     -0.51349314	     -0.19870989	      0.46577726	     -0.47681506	     -0.12227314	      0.35380982	     -0.44013698	     -1.52849979	      2.58383951	     -3.26387979	      0.00000000	      0.00000000	     26.83755442	     -6.75875151	      6.47209963	      7.87922581	    -12.47806300	    107.98467947	      5.99222479	      2.17106810	     -4.73667736	    -14.37775679	      6.29188724	    -11.67517337	    125.40738497	     10.38151698	      6.99370695	     -2.56587939	    -10.57783993
      2.54000000	     -2.51094855	     -8.72332755	     93.94336677	      0.22002005	      0.75561316	      0.60816834	      0.75815030	     -2.23893926	      3.88452827	      1.62471191	      0.02835657	     25.22385983	     -3.40289789	      0.00000000	      4.30862043	      2.48364636	      0.93430415	      5.78583704	      0.10098191	     26.20425229	     -1.39283134	      0.00000000	     -0.24287425	      0.23080057	     -0.57078236	     -0.45104176	      0.30696476	     -0.60645625	     -0.39901810	      0.56116852	     -0.60645625	     -0.27758098	      0.56116852	     -0.49943456	     -0.22553302	      0.47064853	     -0.46376066	     -0.13877834	      0.35751009	     -0.42808677	     -1.73482645	      2.61086225	     -3.17452023	      0.00000000	      0.00000000	     26.50391183	     -6.64305140	      7.18712401	      8.15781298	    -12.20750582	    108.76673907	      5.40217135	      2.35031515	     -4.97147329	    -14.91625108	      6.79260347	    -11.93505128	    125.54230420	     11.02932925	      7.40805773	     -2.51056130	    -10.71024278
      2.56000000	     -2.64955669	     -8.46292340	     93.41267772	      0.22089318	      0.75620960	      0.60698903	      0.48256909	     -2.36494095	      3.91067690	      1.70008882	      0.02967215	     25.44255983	     -2.69997793	      0.00000000	      3.76803806	      2.57570474	      0.65657007	      5.42262338	      0.09464263	     25.87614825	     -1.68772454	      0.00000000	     -0.25787594	      0.22388039	     -0.48315585	     -0.47890141	      0.29776092	     -0.51335309	     -0.42366438	      0.54434279	     -0.51335309	     -0.29472641	      0.54434279	     -0.42276137	     -0.23946360	      0.45653690	     -0.39256413	     -0.14735031	      0.34679073	     -0.36236689	     -1.84198204	      2.53257979	     -2.68716788	      0.00000000	      0.00000000	     26.28975973	     -6.50448462	      7.40059715	      8.17500488	    -11.62128077	    114.68314621	      3.58456437	      1.75629603	     -5.62375340	    -14.81539342	      7.23069751	    -12.19926535	    124.97180689	     11.75479979	      8.58276655	     -3.17279610	    -10.98976380
      2.58000000	     -2.82401049	     -8.16252126	     92.84215834	      0.22185310	      0.75674999	      0.60558188	      0.12409828	     -2.53343242	      4.03567063	      1.73641616	      0.03030618	     25.42303899	     -2.05943645	      0.00000000	      3.15571773	      2.71140387	      0.22287676	      5.03249364	      0.08783358	     25.61516638	     -1.83464253	      0.00000000	     -0.27788886	      0.20787842	     -0.32130590	     -0.51606739	      0.27647830	     -0.34138752	     -0.45654360	      0.50543560	     -0.34138752	     -0.31759917	      0.50543560	     -0.28114267	     -0.25804759	      0.42390568	     -0.26106105	     -0.15878569	      0.32200368	     -0.24097943	     -1.98493231	      2.35156229	     -1.78700705	      0.00000000	      0.00000000	     26.22320925	     -6.57088270	      6.86675066	      7.90485589	    -11.34974463	    118.58915689	      2.61090123	      1.86275481	     -6.73968378	    -14.68573957	      7.82327395	    -12.54213817	    124.29723856	     12.81304442	      8.89403091	     -3.87887952	    -11.46095411
      2.60000000	     -2.89752424	     -7.98739905	     92.51613103	      0.22241132	      0.75712994	      0.60434445	     -0.12015252	     -2.60774131	      3.75275778	      1.78733978	      0.03119496	     25.20910293	     -1.28324440	      0.00000000	      2.78129214	      2.77113103	     -0.13174701	      4.80887579	      0.08393072	     25.54055310	     -1.82858851	      0.00000000	     -0.28177674	      0.20613972	     -0.17479169	     -0.52328758	      0.27416583	     -0.18571617	     -0.46293100	      0.50120812	     -0.18571617	     -0.32204263	      0.50120812	     -0.15294273	     -0.26165788	      0.42036012	     -0.14201825	     -0.16100723	      0.31931043	     -0.13109376	     -2.01270306	      2.33189376	     -0.97213892	      0.00000000	      0.00000000	     26.32572226	     -6.67000108	      6.38174798	      7.48752646	    -11.24654660	    123.76801447	      1.67227673	      1.81245999	     -7.99950416	    -13.98927094	      8.46544307	    -12.86570447	    122.88193008	     14.06682730	      9.22392339	     -4.62903476	    -11.87308697
      2.62000000	     -2.97458192	     -7.86676637	     92.20189192	      0.22266432	      0.75759577	      0.60355830	     -0.27719739	     -2.72184187	      3.42909563	      1.86125460	      0.03248502	     24.93025569	     -0.38242803	      0.00000000	      2.52793943	      2.86096901	     -0.69536547	      4.64524917	      0.08107489	     25.56399870	     -1.60180240	      0.00000000	     -0.27831883	      0.20808232	     -0.07076062	     -0.51686590	      0.27674948	     -0.07518316	     -0.45725001	      0.50593135	     -0.07518316	     -0.31809059	      0.50593135	     -0.06191554	     -0.25844687	      0.42432147	     -0.05749300	     -0.15903138	      0.32231951	     -0.05307047	     -1.98800358	      2.35386881	     -0.39354935	      0.00000000	      0.00000000	     26.42066706	     -6.95450882	      5.88583879	      7.25127429	    -11.30831361	    128.96268908	      1.17717887	      2.17426044	     -9.52645699	    -13.09325062	      9.07639268	    -13.10996585	    121.17323622	     15.25032422	      9.71923885	     -5.34218741	    -12.14134811
      2.64000000	     -3.03010873	     -7.76796432	     92.01416503	      0.22276514	      0.75825107	      0.60337754	     -0.32123937	     -2.83766621	      1.92525084	      2.07553195	      0.03622487	     24.99888190	      1.93977137	      0.00000000	      2.50237580	      2.85229460	     -2.97133159	      4.86053048	      0.08483226	     26.16307063	      1.08754061	      0.00000000	     -0.27288342	      0.21610372	     -0.04946765	     -0.50677179	      0.28741795	     -0.05255938	     -0.44832016	      0.52543460	     -0.05255938	     -0.31187846	      0.52543460	     -0.04328420	     -0.25339954	      0.44067872	     -0.04019247	     -0.15592558	      0.33474467	     -0.03710074	     -1.94917896	      2.44460856	     -0.27512425	      0.00000000	      0.00000000	     26.46934793	     -7.44284796	      5.57900993	      7.27770498	    -11.42884305	    134.51341710	      0.89137530	      2.56266047	    -10.76895004	    -12.09513699	      9.15573175	    -13.76219995	    113.48963123	     16.80135840	     15.66971295	     -6.36179414	    -11.65632537
      2.66000000	     -3.03661556	     -7.60214900	     91.72620540	      0.22273988	      0.75919638	      0.60321809	     -0.46288873	     -2.88099012	      2.21452169	      2.15281394	      0.03757369	     24.63535817	      1.86802197	      0.00000000	      2.27771847	      2.88994658	     -3.39566893	      4.75802074	      0.08304313	     26.09255762	      1.11067947	      0.00000000	     -0.26682690	      0.23476685	     -0.06186146	     -0.49552423	      0.31223991	     -0.06572780	     -0.43836991	      0.57081211	     -0.06572780	     -0.30495646	      0.57081211	     -0.05412878	     -0.24777546	      0.47873655	     -0.05026243	     -0.15246489	      0.36365385	     -0.04639609	     -1.90591785	      2.65572952	     -0.34405487	      0.00000000	      0.00000000	     26.27513811	     -8.07237041	      5.31689051	      7.44478986	    -11.55236949	    138.72595783	      0.78067630	      4.28645871	    -12.05618571	    -11.01094569	      9.58806305	    -13.59876945	    112.81003747	     17.28905183	     15.71029434	     -6.68538596	    -11.95910504
      2.68000000	     -3.01123356	     -7.41855473	     91.54451030	      0.22272444	      0.76016158	      0.60320311	     -0.65402300	     -2.86802375	      3.04670371	      2.13636185	      0.03728655	     24.23047536	      0.89161302	      0.00000000	      2.08494408	      2.85388940	     -4.15680648	      4.76946475	      0.08324286	     26.24290085	      1.84241735	      0.00000000	     -0.25545452	      0.25913599	     -0.16724411	     -0.47440460	      0.34465087	     -0.17769686	     -0.41968624	      0.63006325	     -0.17769686	     -0.29195897	      0.63006325	     -0.14633859	     -0.23721507	      0.52843011	     -0.13588584	     -0.14596671	      0.40140165	     -0.12543308	     -1.82468612	      2.93139817	     -0.93016156	      0.00000000	      0.00000000	     25.77668267	     -8.60229732	      5.73144834	      7.84524083	    -11.62919421	    144.22657652	      0.71140003	      4.75358189	    -12.77806137	     -9.79909583	      9.76526260	    -13.59370999	    110.84138871	     17.93536081	     17.07662114	     -6.91324808	    -12.06919645
      2.70000000	     -2.95763902	     -7.09460704	     91.23532594	      0.22298714	      0.76132806	      0.60277869	     -0.98903908	     -2.83189576	      3.62447463	      2.10855906	      0.03680130	     24.00123968	      0.48493823	      0.00000000	      1.62151730	      2.80038572	     -4.62032235	      4.57282757	      0.07981090	     26.10452843	      1.99249482	      0.00000000	     -0.25034179	      0.28515022	     -0.23938072	     -0.46490975	      0.37924979	     -0.25434201	     -0.41128653	      0.69331424	     -0.25434201	     -0.28611564	      0.69331424	     -0.20945813	     -0.23246739	      0.58147833	     -0.19449683	     -0.14304530	      0.44169769	     -0.17953554	     -1.78816641	      3.22567632	     -1.33136373	      0.00000000	      0.00000000	     24.90827143	     -9.34271407	      5.75781159	      8.15405821	    -11.65874787	    146.60577677	      0.72052813	      6.52406860	    -12.35886146	     -8.81960747	     10.08544116	    -13.33434628	    110.78087057	     18.18509156	     18.15159924	     -7.04458565	    -11.68447690
      2.72000000	     -2.92659775	     -6.68643396	     90.96841517	      0.22344427	      0.76243096	      0.60162776	     -1.49903132	     -2.81022112	      4.25651166	      1.98386755	      0.03462502	     23.92206404	      0.03054800	      0.00000000	      0.98903135	      2.75768775	     -4.87977426	      4.30224760	      0.07508839	     26.00744326	      2.08885907	      0.00000000	     -0.23733254	      0.30884467	     -0.31667055	     -0.44075025	      0.41076341	     -0.33646246	     -0.38991363	      0.75092493	     -0.33646246	     -0.27124736	      0.75092493	     -0.27708673	     -0.22038699	      0.62979605	     -0.25729483	     -0.13561181	      0.47840039	     -0.23750292	     -1.69524258	      3.49371268	     -1.76122662	      0.00000000	      0.00000000	     23.58181255	    -10.17572579	      6.15085506	      8.32349201	    -11.65633450	    148.27564524	      0.81697443	      7.74001240	    -11.61837952	     -8.18184787	     10.35654963	    -13.09166035	    111.28448390	     18.41751461	     19.29396198	     -7.04518964	    -11.04834924
